PathFileType	4	(X/Y/Z)	./resultDataOpenSim/trcMotMarkerGrf/sub09/qtm-14-05.trc
DataRate	CameraRate	NumFrames	NumMarkers	Units	OrigDataRate	OrigDataStartFrame	OrigNumFrames
250.000000	250.000000	10	24	m	250.000000	425	485
Frame#	Time	L.Toe.Tip			R.Toe.Tip			L.Ankle.Lat			R.Ankle.Lat			L.Ankle.Med			R.Ankle.Med			L.Heel			R.Heel			L.Knee.Lat			R.Knee.Lat			L.Knee.Med			R.Knee.Med			L.Thigh.Upper			R.Thigh.Upper			L.ASIS			R.ASIS			V.Sacral			L.Acromium			R.Acromium			C7			L.Elbow			R.Elbow			L.Wrist.Lat			R.Wrist.Lat
		X1	Y1	Z1	X2	Y2	Z2	X3	Y3	Z3	X4	Y4	Z4	X5	Y5	Z5	X6	Y6	Z6	X7	Y7	Z7	X8	Y8	Z8	X9	Y9	Z9	X10	Y10	Z10	X11	Y11	Z11	X12	Y12	Z12	X13	Y13	Z13	X14	Y14	Z14	X15	Y15	Z15	X16	Y16	Z16	X17	Y17	Z17	X18	Y18	Z18	X19	Y19	Z19	X20	Y20	Z20	X21	Y21	Z21	X22	Y22	Z22	X23	Y23	Z23	X24	Y24	Z24

425	1.696	1.7433007	0.078682829	-0.095065202	1.088531	0.040748279	0.06194317	1.5865571	0.076115193	-0.1195308	0.96810141	0.10574032	0.10573964	1.6153007	0.10234	-0.027845737	0.98435902	0.13987511	0.014090728	1.5335791	0.025568936	-0.068278817	0.88917389	0.11572113	0.058927681	1.4910564	0.48496607	-0.15201192	1.2385437	0.48151224	0.15306853	1.5284581	0.48663708	-0.02062388	1.2175099	0.47487593	0.027625803	1.3062064	0.86121464	-0.17504112	1.2895527	0.88212315	0.19980441	1.3838109	0.95712979	-0.12054289	1.396109	0.9653845	0.12158532	1.2173212	1.0042889	0.0026700718	1.3305843	1.4046262	-0.19127677	1.3423831	1.4316455	0.14019576	1.2653761	1.4625076	-0.021846765	1.1894253	1.0631615	-0.22100402	1.240943	1.0777646	0.25369125	1.278406	0.83078365	-0.30144588	1.4738304	0.9236428	0.22011686
426	1.7	1.7470068	0.074449204	-0.093909476	1.0888563	0.040889052	0.061989834	1.5898984	0.075785303	-0.11964676	0.96938695	0.1078029	0.10605815	1.6188718	0.10149434	-0.02791409	0.98643544	0.14142362	0.014131267	1.5353894	0.026941752	-0.068509097	0.89079972	0.11861649	0.05886687	1.496823	0.48453757	-0.15274872	1.2442418	0.4804179	0.15291709	1.5337146	0.4865019	-0.021346612	1.2236933	0.4732644	0.027290299	1.3121877	0.86040788	-0.17572345	1.2952464	0.88076223	0.19885397	1.3897905	0.95651859	-0.12112748	1.4019661	0.96411812	0.12087108	1.2236701	1.0036746	0.0020344648	1.3353328	1.4037776	-0.19210576	1.3472074	1.430504	0.13953842	1.2702296	1.4615955	-0.022603799	1.1949311	1.0619932	-0.2216396	1.2453992	1.0765256	0.25248864	1.2839716	0.82973269	-0.30217235	1.4775618	0.92140102	0.22008128
427	1.704	1.7505469	0.070726107	-0.092971203	1.0892078	0.041028807	0.062070348	1.5933729	0.075492917	-0.12006138	0.97064387	0.10988929	0.10626478	1.6223812	0.10073634	-0.028230711	0.98864309	0.14305586	0.014196756	1.5373377	0.028203805	-0.069160949	0.89263115	0.12169775	0.058792004	1.5027169	0.48442263	-0.15349553	1.2502714	0.47927839	0.1526454	1.5387451	0.48632873	-0.022076855	1.2300871	0.47168597	0.026948494	1.3183636	0.85979207	-0.1764654	1.3009451	0.87937719	0.19788431	1.3957298	0.95604557	-0.12170779	1.4078221	0.96287783	0.12018564	1.2298498	1.0030815	0.0013498658	1.3400905	1.4029762	-0.1929712	1.3520374	1.429437	0.13890012	1.2751664	1.4608387	-0.023375238	1.2004726	1.0608476	-0.22225648	1.2500157	1.0753476	0.25127656	1.289604	0.82871102	-0.30288128	1.4813831	0.9191197	0.2200301
428	1.708	1.7537002	0.067108179	-0.092163911	1.0895879	0.041167101	0.062219991	1.5968109	0.075140958	-0.12069314	0.97181419	0.11200002	0.10640816	1.6255381	0.099992751	-0.028709388	0.99099316	0.14479382	0.014296344	1.5392386	0.029281359	-0.070090847	0.8946772	0.12498462	0.058705328	1.509004	0.48465505	-0.15426925	1.2567179	0.47801582	0.1521854	1.5435817	0.48612766	-0.022813855	1.2365649	0.47022034	0.026564757	1.3247207	0.85943944	-0.1772853	1.3067104	0.87796849	0.19689935	1.4016351	0.95574734	-0.12228153	1.4136535	0.96166877	0.11952545	1.2357647	1.0025181	0.0006901268	1.344865	1.4022311	-0.19386404	1.3568877	1.4284662	0.13826699	1.2801744	1.4602266	-0.024169692	1.2060437	1.0597386	-0.22286329	1.254911	1.0742632	0.25005204	1.2953047	0.827726	-0.30357435	1.4852409	0.91680319	0.21998094
429	1.712	1.7564055	0.063171142	-0.091392391	1.0900206	0.0413276	0.062428631	1.6000644	0.074725276	-0.12146241	0.97296805	0.11421207	0.10653191	1.6282868	0.099225871	-0.029303359	0.99349887	0.14665693	0.014431229	1.5409321	0.030266302	-0.071115715	0.89693594	0.1284804	0.058600684	1.5157455	0.48518892	-0.15506977	1.263501	0.47670708	0.15161137	1.548256	0.4859088	-0.023557215	1.2431565	0.46891092	0.026120506	1.331238	0.85941099	-0.17821975	1.3125745	0.87655941	0.19590296	1.4075257	0.9556383	-0.12284263	1.4194454	0.96051379	0.11888203	1.2415407	1.0020197	8.4002409e-05	1.3496669	1.4015514	-0.19477302	1.3617571	1.4275986	0.13762511	1.2851925	1.4597048	-0.025024074	1.2116455	1.0586816	-0.22346194	1.2600231	1.0732628	0.24879545	1.3010733	0.82678902	-0.30424288	1.4890669	0.91445974	0.21995553
430	1.716	1.7586955	0.058777859	-0.090609234	1.0905276	0.041536822	0.062644601	1.6030208	0.074256521	-0.12228697	0.97429326	0.11668159	0.10664624	1.6306866	0.098423703	-0.029957682	0.99618654	0.1486425	0.014590607	1.5423318	0.031261799	-0.072129024	0.89941398	0.13218173	0.058452156	1.5228571	0.48591521	-0.15586396	1.2703965	0.47549855	0.15107756	1.552799	0.48568214	-0.024306479	1.2499534	0.46774206	0.025636856	1.3378563	0.85972319	-0.17924791	1.3184882	0.87518677	0.19490624	1.4134233	0.9557083	-0.1233927	1.4251857	0.95943758	0.11824586	1.2472903	1.0016013	-0.00049228245	1.3545072	1.4009406	-0.19568417	1.3666215	1.4268404	0.13696773	1.2901063	1.4592118	-0.026000635	1.2172812	1.057696	-0.22406457	1.2652202	1.0723331	0.24747509	1.3069045	0.82591482	-0.30487549	1.4928258	0.91210368	0.21996405
431	1.72	1.7606659	0.054193308	-0.089774058	1.0911026	0.04179748	0.062820974	1.6056485	0.073731527	-0.12304044	0.97580578	0.11953746	0.10678815	1.6327278	0.097586514	-0.030530482	0.99910053	0.15072847	0.014761986	1.5434587	0.032246993	-0.073124916	0.90212648	0.13608741	0.058236623	1.5302043	0.48669569	-0.15661139	1.2772801	0.47445167	0.15067667	1.5572415	0.48545754	-0.025061105	1.2569969	0.46665174	0.025153977	1.3444945	0.86034028	-0.18029791	1.3243464	0.87388154	0.19393126	1.4193406	0.95593286	-0.12393414	1.4308686	0.95845503	0.11760874	1.2530447	1.0012454	-0.0010650671	1.3593969	1.400398	-0.1965827	1.3714552	1.4262116	0.13629241	1.294818	1.4587292	-0.027143451	1.2229513	1.0567963	-0.22469164	1.2704025	1.0714853	0.24607429	1.3127914	0.82511666	-0.30546618	1.4965008	0.90974621	0.22000836
432	1.724	1.7624325	0.049958925	-0.08884778	1.0917054	0.042093063	0.06291827	1.6080217	0.07314972	-0.1235468	0.97728262	0.12278125	0.10705441	1.6343252	0.096727984	-0.030804572	1.0022792	0.15289915	0.014946322	1.5444053	0.033101099	-0.07410566	0.90508137	0.14020367	0.057950307	1.5376682	0.48739324	-0.15729638	1.2842051	0.47353039	0.15041436	1.5616132	0.48524475	-0.025820766	1.2642587	0.46560323	0.024692291	1.3510969	0.86120172	-0.18134446	1.3301118	0.87265101	0.19297668	1.4252799	0.95628333	-0.12446954	1.4365018	0.95757625	0.11696383	1.258789	1.0009228	-0.0016607071	1.3643449	1.3999224	-0.19745704	1.376246	1.425732	0.13559308	1.2993678	1.4582763	-0.028391748	1.2286515	1.0559868	-0.22535443	1.2755274	1.0707433	0.24459948	1.3187298	0.82440195	-0.30601272	1.5000849	0.90738733	0.22008746
433	1.728	1.7640485	0.046578743	-0.087866348	1.0922773	0.042408666	0.062898225	1.610239	0.072540495	-0.12364522	0.97865815	0.12629401	0.1074749	1.6354588	0.095873693	-0.030612544	1.0057311	0.15515779	0.015156987	1.545255	0.033727731	-0.074971015	0.90827198	0.14454428	0.057599354	1.5451289	0.48789274	-0.15793199	1.2912631	0.47270142	0.15027858	1.5659429	0.48505343	-0.026585853	1.2716424	0.46462403	0.024240994	1.3576469	0.8622363	-0.18243453	1.3358404	0.87147963	0.19200763	1.4312298	0.95673058	-0.12500515	1.4421005	0.95680616	0.11630602	1.2644893	1.0006129	-0.0023127737	1.3693551	1.3995085	-0.19829826	1.3809886	1.4254023	0.13486336	1.3039166	1.4578638	-0.029586874	1.2343756	1.0552664	-0.22604191	1.2805906	1.0701289	0.24306745	1.3247217	0.82377516	-0.3065152	1.5035725	0.9050238	0.22019952
434	1.732	1.7654652	0.044251433	-0.086929308	1.0927752	0.042741063	0.062773857	1.6122687	0.071981195	-0.12328599	0.98024662	0.12993722	0.10789332	1.6362431	0.095057005	-0.029959259	1.0094375	0.15752151	0.01540709	1.5460183	0.034132003	-0.075552759	0.91169141	0.14912674	0.057186059	1.5523722	0.48813024	-0.15853901	1.298507	0.47196174	0.15026403	1.5702577	0.48489305	-0.027357623	1.279019	0.4637547	0.0237839	1.3641517	0.86334844	-0.18361155	1.3415461	0.87037243	0.1909961	1.4371621	0.9572441	-0.12554883	1.4476795	0.9561396	0.11563026	1.2701242	1.0003101	-0.0030384119	1.374427	1.3991506	-0.19909699	1.3856732	1.4252042	0.13410883	1.3085774	1.4574809	-0.030611944	1.2401206	1.0546314	-0.2267221	1.2855975	1.0696605	0.24149302	1.3307752	0.82324042	-0.30697858	1.5069686	0.90266884	0.22033725
